<?xml version="1.0" encoding="UTF-8"?>
<svg id="Layer_1" data-name="Layer 1" xmlns="http://www.w3.org/2000/svg" viewBox="0 0 150 150">
  <defs>
    <style>
      .cls-1 {
        fill: #fff;
      }

      .cls-2 {
        fill: #231f20;
        stroke: #231f20;
      }

      .cls-2, .cls-3 {
        stroke-miterlimit: 10;
      }

      .cls-3 {
        fill: none;
        stroke: #fff;
        stroke-width: 8px;
      }
    </style>
  </defs>
  <rect class="cls-2" x="0" y="-.5" width="150" height="150"/>
  <g>
    <path class="cls-3" d="m72.79,115.98l-38.78-38.78c-19.26-19.26-5.62-52.21,21.62-52.21h38.78c16.89,0,30.58,13.69,30.58,30.58v38.78c0,27.24-32.94,40.89-52.21,21.62Z"/>
    <path class="cls-3" d="m115.98,77.21l-38.78,38.78c-19.26,19.26-52.21,5.62-52.21-21.62v-38.78c0-16.89,13.69-30.58,30.58-30.58h38.78c27.24,0,40.89,32.94,21.62,52.21Z"/>
    <path class="cls-1" d="m97.37,57.65c0,2.21-1.79,4-4,4-5.31-.21-5.3-7.79,0-8,2.21,0,4,1.79,4,4Z"/>
    <path class="cls-1" d="m63.77,57.65c0,2.21-1.79,4-4,4-5.31-.21-5.3-7.79,0-8,2.21,0,4,1.79,4,4Z"/>
  </g>
</svg>