	<svg
		id="Layer_1"
		data-name="Layer 1"
		xmlns="http://www.w3.org/2000/svg"
		viewBox="0 0 59.97 30"
	>
		<path
			d="m2.16,9.91l.14.13,4.46,10.18,4.46-10.18.13-.13h1.49l.14.13-5.35,12-.14.13h-1.46l-.14-.13L.54,10.04l.14-.13h1.49Z"
			style="fill: #fff;"
		/>
		<path
			d="m26.35,16.04c0,3.65-2.92,6.52-6.62,6.52s-6.62-2.87-6.62-6.52,2.92-6.52,6.62-6.52,6.62,2.87,6.62,6.52Zm-11.57,0c0,2.9,2.16,5.06,4.95,5.06s4.95-2.17,4.95-5.06-2.16-5.06-4.95-5.06-4.95,2.17-4.95,5.06Z"
			style="fill: #fff;"
		/>
		<path
			d="m30.11,9.91l.14.13v6.39c0,3.03,1.43,4.67,4.3,4.67,1.7,0,3.54-.86,4.43-2.19v-8.87l.14-.13h1.3l.13.13v12l-.13.13h-1.3l-.14-.13v-1.28c-1.11,1.07-2.81,1.8-4.43,1.8-3.92,0-5.89-2.22-5.89-6v-6.52l.13-.13h1.32Z"
			style="fill: #fff;"
		/>
		<path
			d="m45.24,3.91l.13.13v14.17c0,2.17.81,2.9,1.97,2.9.73,0,1.41-.18,2.22-.91l.13.13v1.46c-.62.39-1.49.78-2.35.78-2.22,0-3.57-1.36-3.57-4.23V4.04l.13-.13h1.32Z"
			style="fill: #fff;"
		/>
		<path
			d="m52.78,9.91l.13.13v1.28c1.08-1.07,2.78-1.8,4.43-1.8.81,0,1.68.13,2.49.52l.13,1.51-.13.13c-.86-.65-1.81-.7-2.49-.7-1.7,0-3.54.86-4.43,2.19v8.87l-.13.13h-1.32l-.14-.13v-12l.14-.13h1.32Z"
			style="fill: #fff;"
		/>
	</svg>
