<?xml version="1.0" encoding="UTF-8"?>
<svg id="Layer_1" data-name="Layer 1" xmlns="http://www.w3.org/2000/svg" viewBox="0 0 2000 600">
  <defs>
    <style>
      .cls-1 {
        fill: #231f20;
      }

      .cls-2 {
        fill: none;
        stroke: #231f20;
        stroke-miterlimit: 10;
        stroke-width: 44px;
      }
    </style>
  </defs>
  <g>
    <path class="cls-1" d="m858.08,456.69c-7.16-6.73-13.92-18.12-20.29-34.16l-86.32-215.34c-1.35-3.17-2.03-6.43-2.02-9.8,0-7.32,3.01-13.7,9.02-19.14,6-5.44,12.68-8.15,20.04-8.15,1.93,0,3.82.2,5.66.6,1.84.4,3.67,1.09,5.51,2.08,1.84,1,3.53,2.23,5.08,3.72,1.55,1.49,3,3.27,4.35,5.35,1.35,2.08,2.51,4.41,3.48,6.98l84.87,217.42,85.27-217.26c4.85-12.47,12.98-18.69,24.41-18.68,3.48,0,6.97.7,10.45,2.09,3.48,1.39,6.58,3.32,9.29,5.8,2.7,2.48,4.93,5.45,6.67,8.91,1.74,3.47,2.61,6.98,2.6,10.54,0,.79-.05,1.59-.15,2.37-.1.79-.25,1.63-.44,2.52-.2.89-.39,1.73-.58,2.52-.2.79-.49,1.59-.87,2.38l-87.02,215.18c-6.4,16.03-13.19,27.41-20.36,34.12-7.17,6.73-16.95,10.08-29.34,10.07-12.39-.01-22.16-3.38-29.32-10.12Z"/>
    <path class="cls-1" d="m1116.95,458.86c-18.96-8.23-34.44-19.38-46.42-33.45-11.99-14.06-21.17-30.2-27.54-48.42-6.37-18.21-9.55-37.72-9.53-58.5.02-20.98,3.23-40.62,9.64-58.93,6.41-18.3,15.66-34.47,27.77-48.52,12.11-14.04,27.61-25.11,46.49-33.21,18.88-8.1,40.03-12.14,63.45-12.11,30.78.03,57.43,6.98,79.97,20.86,22.54,13.88,39.36,32.25,50.47,55.12,11.11,22.87,16.65,48.56,16.62,77.06-.02,20.59-3.23,40.03-9.64,58.33-6.41,18.31-15.62,34.48-27.63,48.52-12.02,14.05-27.51,25.17-46.49,33.36-18.98,8.19-40.18,12.29-63.6,12.26-23.42-.02-44.61-4.15-63.58-12.38Zm129.55-58.22c15.7-19.78,23.56-47.08,23.59-81.92.03-34.64-7.88-62.01-23.73-82.12-15.86-20.1-37.72-30.17-65.59-30.2-28.07-.03-50,9.95-65.79,29.93-15.8,19.98-23.71,47.39-23.74,82.22-.03,34.64,7.88,61.96,23.73,81.97,15.85,20.01,37.72,30.02,65.59,30.05,28.26-.17,50.24-10.15,65.94-29.93Z"/>
    <path class="cls-1" d="m1388.77,442.78c-19.44-19.12-29.14-47.78-29.1-85.98l.15-157.36c0-9.1,2.92-16.18,8.73-21.22s12.68-7.56,20.62-7.55c7.93,0,14.76,2.54,20.46,7.59,5.7,5.05,8.55,12.13,8.54,21.24l-.15,157.96c-.02,23.95,5.48,42.17,16.5,54.65s26.11,18.73,45.28,18.75c21.68.02,40.12-8.17,55.33-24.59,15.21-16.41,23.21-38.38,24.01-65.89l.13-140.74c0-9.1,2.92-16.18,8.73-21.22s12.78-7.56,20.91-7.55c7.93,0,14.76,2.54,20.46,7.59,5.7,5.05,8.55,12.13,8.55,21.24l-.22,239.01c0,8.91-2.92,15.83-8.73,20.78-5.81,4.94-12.78,7.41-20.91,7.4-7.94,0-14.76-2.39-20.46-7.15-5.71-4.75-8.55-11.39-8.55-19.9l.02-21.38c-7.76,17.02-19.97,30.12-36.62,39.31-16.66,9.19-36.02,13.77-58.08,13.75-30.97-.03-56.17-9.6-75.61-28.72Z"/>
    <path class="cls-1" d="m1683.49,459.24c-5.61-5.15-8.41-12.58-8.4-22.28l.34-365.5c0-9.1,2.92-16.33,8.73-21.67,5.81-5.34,12.68-8,20.62-8,7.93,0,14.81,2.69,20.61,8.04,5.8,5.35,8.7,12.58,8.69,21.68l-.34,365.49c0,9.31-3.02,16.62-9.02,21.96-6.01,5.34-12.98,8-20.91,8-7.94,0-14.71-2.58-20.32-7.74Z"/>
    <path class="cls-1" d="m1797.77,459.79c-5.61-4.85-8.41-11.83-8.4-20.94l.22-239.9c0-8.71,2.96-15.48,8.87-20.33,5.91-4.84,12.83-7.26,20.77-7.26,3.09,0,6.05.35,8.85,1.05,2.8.7,5.42,1.79,7.84,3.27,2.42,1.49,4.54,3.22,6.38,5.2,1.83,1.98,3.29,4.41,4.35,7.28,1.06,2.87,1.59,5.99,1.59,9.35l-.62,36.52c4.85-18.4,14.69-33.83,29.51-46.29,14.82-12.46,32-18.68,51.55-18.66,6.97,0,12.38,2.59,16.25,7.73,3.87,5.15,5.8,11.29,5.79,18.41,0,6.53-1.75,12.17-5.24,16.92-3.49,4.75-8.43,7.12-14.81,7.11-25.75-.02-45.93,6.09-60.55,18.35-14.63,12.26-21.95,30.96-21.97,56.1l-.13,145.19c0,8.91-3.02,15.83-9.02,20.78-6.01,4.94-12.98,7.41-20.91,7.4-7.94,0-14.71-2.44-20.32-7.29Z"/>
  </g>
  <g>
    <path class="cls-2" d="m286.87,525.4l-213.27-213.27C-32.36,206.17,42.69,25,192.53,25h213.27c92.89,0,168.2,75.3,168.2,168.2v213.27c0,149.85-181.17,224.89-287.13,118.93Z"/>
    <path class="cls-2" d="m524.4,312.13l-213.27,213.27c-105.96,105.96-287.13,30.91-287.13-118.93v-213.27C24,100.3,99.3,25,192.2,25h213.27c149.85,0,224.89,181.17,118.93,287.13Z"/>
    <path class="cls-1" d="m422.04,204.56c0,12.15-9.85,22-22,22-29.18-1.16-29.17-42.85,0-44,12.15,0,22,9.85,22,22Z"/>
    <path class="cls-1" d="m237.24,204.56c0,12.15-9.85,22-22,22-29.18-1.16-29.17-42.85,0-44,12.15,0,22,9.85,22,22Z"/>
  </g>
</svg>
