<?xml version="1.0" encoding="UTF-8"?>
<svg id="Layer_1" data-name="Layer 1" xmlns="http://www.w3.org/2000/svg" viewBox="0 0 500 500">
  <defs>
    <style>
      .cls-1 {
        fill: #fff;
      }

      .cls-2 {
        fill: none;
        stroke: #fff;
        stroke-miterlimit: 10;
        stroke-width: 36.8px;
      }
    </style>
  </defs>
  <path class="cls-2" d="m239.86,438.52L61.48,260.14C-27.13,171.52,35.63,20,160.95,20h178.37c77.69,0,140.67,62.98,140.67,140.67v178.37c0,125.33-151.52,188.09-240.14,99.47Z"/>
  <path class="cls-2" d="m438.52,260.14l-178.37,178.37c-88.62,88.62-240.14,25.86-240.14-99.47v-178.37c0-77.69,62.98-140.67,140.67-140.67h178.37c125.33,0,188.09,151.52,99.47,240.14Z"/>
  <path class="cls-1" d="m352.91,170.18c0,10.16-8.24,18.4-18.4,18.4-24.41-.97-24.4-35.83,0-36.8,10.16,0,18.4,8.24,18.4,18.4Z"/>
  <path class="cls-1" d="m198.35,170.18c0,10.16-8.24,18.4-18.4,18.4-24.41-.97-24.4-35.83,0-36.8,10.16,0,18.4,8.24,18.4,18.4Z"/>
</svg>